<svg width="34" height="36" viewBox="0 0 34 36" fill="none" xmlns="http://www.w3.org/2000/svg">
<path d="M17.0019 0.0875259C7.60831 0.0834818 0 8.17978 0 18.1728C0 26.0749 4.75947 32.7922 11.3878 35.2591C12.2804 35.4977 12.1437 34.8223 12.1437 34.3613V31.2271C6.98916 31.8701 6.78025 28.2385 6.43459 27.6319C5.73567 26.3621 4.08334 26.0385 4.57714 25.4319C5.75087 24.7889 6.94738 25.5937 8.33382 27.7735C9.33661 29.3547 11.2928 29.0878 12.2842 28.8249C12.5007 27.8746 12.9641 27.0253 13.6023 26.3661C8.26165 25.347 6.03575 21.8772 6.03575 17.7522C6.03575 15.7503 6.6549 13.9103 7.87041 12.4261C7.09552 9.97941 7.94258 7.88456 8.05653 7.57316C10.2634 7.36287 12.5577 9.25551 12.7362 9.40514C13.9897 9.04522 15.4217 8.85514 17.0247 8.85514C18.6352 8.85514 20.0711 9.0533 21.3359 9.41727C21.7652 9.06948 23.8923 7.44375 25.9435 7.64191C26.0536 7.95331 26.8817 9.99963 26.1524 12.414C27.3831 13.9022 28.0098 15.7584 28.0098 17.7643C28.0098 21.8974 25.7687 25.3713 20.4129 26.3742C20.8717 26.8545 21.2359 27.4273 21.4844 28.0592C21.7329 28.6911 21.8606 29.3693 21.8601 30.0543V34.604C21.8905 34.9679 21.8601 35.3279 22.4299 35.3279C29.157 32.9135 34 26.1477 34 18.1768C34 8.17978 26.3879 0.0875259 17.0019 0.0875259Z" fill="black"/>
</svg>
