<svg width="34" height="36" viewBox="0 0 34 36" fill="none" xmlns="http://www.w3.org/2000/svg">
<path d="M16.9954 9.16133C12.1685 9.16133 8.27295 13.0803 8.27295 17.9363C8.27295 22.7922 12.1685 26.7112 16.9954 26.7112C21.8224 26.7112 25.7179 22.7922 25.7179 17.9363C25.7179 13.0803 21.8224 9.16133 16.9954 9.16133ZM16.9954 23.6393C13.8739 23.6393 11.3265 21.0766 11.3265 17.9363C11.3265 14.7959 13.8739 12.2332 16.9954 12.2332C20.117 12.2332 22.6644 14.7959 22.6644 17.9363C22.6644 21.0766 20.117 23.6393 16.9954 23.6393ZM26.0751 6.75689C24.9482 6.75689 24.0381 7.67246 24.0381 8.80623C24.0381 9.94 24.9482 10.8556 26.0751 10.8556C27.2021 10.8556 28.1122 9.94428 28.1122 8.80623C28.1126 8.53701 28.0601 8.27037 27.9579 8.02158C27.8556 7.77279 27.7056 7.54674 27.5163 7.35637C27.3271 7.16601 27.1024 7.01507 26.8551 6.9122C26.6078 6.80933 26.3428 6.75655 26.0751 6.75689ZM33.9981 17.9363C33.9981 15.5746 34.0194 13.2343 33.8875 10.877C33.7557 8.1388 33.1348 5.70869 31.1445 3.70641C29.1499 1.69985 26.7386 1.07949 24.0168 0.946861C21.6693 0.814231 19.343 0.835623 16.9997 0.835623C14.6521 0.835623 12.3259 0.814231 9.98257 0.946861C7.26079 1.07949 4.8452 1.70413 2.85489 3.70641C0.860329 5.71297 0.243674 8.1388 0.111838 10.877C-0.0199991 13.2386 0.00126497 15.5789 0.00126497 17.9363C0.00126497 20.2937 -0.0199991 22.6382 0.111838 24.9956C0.243674 27.7337 0.864582 30.1639 2.85489 32.1661C4.84945 34.1727 7.26079 34.7931 9.98257 34.9257C12.3301 35.0583 14.6564 35.0369 16.9997 35.0369C19.3472 35.0369 21.6735 35.0583 24.0168 34.9257C26.7386 34.7931 29.1542 34.1684 31.1445 32.1661C33.139 30.1596 33.7557 27.7337 33.8875 24.9956C34.0236 22.6382 33.9981 20.2979 33.9981 17.9363ZM30.2556 28.0247C29.9452 28.8033 29.5709 29.3852 28.9713 29.9842C28.3717 30.5874 27.7975 30.9639 27.0235 31.2762C24.7866 32.1704 19.4748 31.9693 16.9954 31.9693C14.5161 31.9693 9.20006 32.1704 6.96309 31.2805C6.18908 30.9682 5.6107 30.5917 5.01531 29.9884C4.41567 29.3852 4.04142 28.8076 3.73097 28.029C2.84638 25.7743 3.04627 20.4306 3.04627 17.9363C3.04627 15.442 2.84638 10.094 3.73097 7.8436C4.04142 7.06493 4.41567 6.48307 5.01531 5.8841C5.61495 5.28513 6.18908 4.90435 6.96309 4.59203C9.20006 3.70213 14.5161 3.90322 16.9954 3.90322C19.4748 3.90322 24.7908 3.70213 27.0278 4.59203C27.8018 4.90435 28.3802 5.28085 28.9756 5.8841C29.5752 6.48735 29.9494 7.06493 30.2599 7.8436C31.1445 10.094 30.9446 15.442 30.9446 17.9363C30.9446 20.4306 31.1445 25.7743 30.2556 28.0247Z" fill="black"/>
</svg>
