<svg width="32" height="30" viewBox="0 0 32 30" fill="none" xmlns="http://www.w3.org/2000/svg">
<path d="M30.72 0.767822H1.28C0.572 0.767822 0 1.28658 0 1.92868V28.6284C0 29.2705 0.572 29.7893 1.28 29.7893H30.72C31.428 29.7893 32 29.2705 32 28.6284V1.92868C32 1.28658 31.428 0.767822 30.72 0.767822ZM9.492 25.4977H4.744V11.6472H9.492V25.4977ZM7.12 9.75359C6.57571 9.75359 6.04363 9.60721 5.59107 9.33296C5.13851 9.05871 4.78578 8.66892 4.57748 8.21286C4.36919 7.7568 4.31469 7.25497 4.42088 6.77083C4.52707 6.28668 4.78917 5.84196 5.17404 5.49291C5.55892 5.14386 6.04928 4.90616 6.58311 4.80986C7.11695 4.71355 7.67028 4.76298 8.17314 4.95188C8.67601 5.14079 9.10581 5.46069 9.4082 5.87113C9.7106 6.28157 9.872 6.76411 9.872 7.25774C9.868 8.63626 8.636 9.75359 7.12 9.75359ZM27.268 25.4977H22.524V18.7611C22.524 17.1541 22.492 15.0899 20.056 15.0899C17.588 15.0899 17.208 16.8384 17.208 18.645V25.4977H12.468V11.6472H17.02V13.5409H17.084C17.716 12.4526 19.264 11.3026 21.576 11.3026C26.384 11.3026 27.268 14.1721 27.268 17.9014V25.4977Z" fill="black"/>
</svg>
