<svg width="28" height="26" viewBox="0 0 28 26" fill="none" xmlns="http://www.w3.org/2000/svg">
<path d="M28 3.5832C26.9703 4.06893 25.8498 4.41851 24.6956 4.55467C25.8939 3.77615 26.7913 2.54623 27.2193 1.09565C26.0949 1.82715 24.863 2.3401 23.5784 2.61173C23.0415 1.98405 22.3922 1.48401 21.6708 1.14278C20.9495 0.801538 20.1716 0.626413 19.3857 0.628311C16.2057 0.628311 13.6484 3.44704 13.6484 6.90607C13.6484 7.3918 13.7022 7.87754 13.7897 8.34487C9.02824 8.07257 4.78164 5.58501 1.95842 1.77641C1.444 2.73727 1.17442 3.83131 1.17774 4.94473C1.17774 7.12317 2.1906 9.04403 3.73513 10.1737C2.82492 10.1345 1.93602 9.86094 1.14073 9.37522V9.45249C1.14073 12.5031 3.11261 15.0311 5.74066 15.6125C5.24721 15.7527 4.7396 15.8244 4.22978 15.8259C3.85627 15.8259 3.50294 15.7854 3.14626 15.7302C3.87309 18.2178 5.98966 20.0246 8.51003 20.0835C6.53816 21.7725 4.06826 22.766 1.38637 22.766C0.90518 22.766 0.461002 22.7476 0 22.6888C2.54393 24.4735 5.56231 25.5038 8.81288 25.5038C19.3655 25.5038 25.1398 15.9437 25.1398 7.64571C25.1398 7.3734 25.1398 7.1011 25.1229 6.82879C26.2401 5.9346 27.2193 4.82697 28 3.5832Z" fill="black"/>
</svg>
